<svg xmlns="http://www.w3.org/2000/svg" viewBox="0 0 32 32" role="img" aria-label="学籍管理">
  <defs>
    <linearGradient id="logoGrad" x1="0%" y1="0%" x2="100%" y2="100%">
      <stop offset="0%" stop-color="#2563eb"/>
      <stop offset="100%" stop-color="#1d4ed8"/>
    </linearGradient>
  </defs>
  <rect width="32" height="32" rx="8.5" fill="url(#logoGrad)"/>
  <!-- Element Plus School icon (viewBox 1024), scaled to match sidebar-logo icon area -->
  <g fill="#ffffff" transform="translate(6, 5.2) scale(0.01953125)">
    <path d="M224 128v704h576V128zm-32-64h640a32 32 0 0 1 32 32v768a32 32 0 0 1-32 32H192a32 32 0 0 1-32-32V96a32 32 0 0 1 32-32"/>
    <path d="M64 832h896v64H64zm256-640h128v96H320z"/>
    <path d="M384 832h256v-64a128 128 0 1 0-256 0zm128-256a192 192 0 0 1 192 192v128H320V768a192 192 0 0 1 192-192M320 384h128v96H320zm256-192h128v96H576zm0 192h128v96H576z"/>
  </g>
</svg>
